<svg xmlns="http://www.w3.org/2000/svg" width="1200" height="1200" viewBox="0 0 1200 1200">
  <defs>
    <linearGradient id="mesh" x1="0%" y1="100%" x2="100%" y2="0%">
      <stop offset="0%" stop-color="#0a0a12"/>
      <stop offset="45%" stop-color="#0f0a1a"/>
      <stop offset="100%" stop-color="#12082a"/>
    </linearGradient>
    <linearGradient id="bar" x1="0%" y1="0%" x2="100%" y2="0%">
      <stop offset="0%" stop-color="#7c3aed"/>
      <stop offset="55%" stop-color="#5b21b6"/>
      <stop offset="100%" stop-color="#1a1035"/>
    </linearGradient>
    <linearGradient id="barGlow" x1="0%" y1="0%" x2="0%" y2="100%">
      <stop offset="0%" stop-color="#c8ff00" stop-opacity="0.35"/>
      <stop offset="100%" stop-color="#7c3aed" stop-opacity="0"/>
    </linearGradient>
    <clipPath id="round">
      <rect width="1200" height="1200" rx="48" ry="48"/>
    </clipPath>
  </defs>

  <g clip-path="url(#round)">
    <rect width="1200" height="1200" fill="url(#mesh)"/>

    <!-- Diagonal stripe language -->
    <path fill="#7c3aed" d="M780 0 1200 0 1200 360 940 0Z"/>
    <path fill="#c8ff00" d="M680 0 1200 0 1200 200 900 0Z"/>
    <path fill="#0a0a12" d="M740 0 1200 0 1200 140 860 0Z"/>
    <path fill="#c8ff00" opacity="0.92" d="M860 1200 1200 280 1200 1200Z"/>
    <path fill="#7c3aed" d="M720 1200 1200 360 1200 1200Z"/>
    <path fill="#0a0a12" d="M800 1200 1200 480 1200 1200Z"/>

    <!-- Purple lower band -->
    <rect y="1008" width="1200" height="192" fill="url(#bar)"/>
    <rect y="1002" width="1200" height="6" fill="#c8ff00"/>
    <rect y="1008" width="1200" height="72" fill="url(#barGlow)"/>

    <!-- Eyebrow only (no URL inside graphic) -->
    <text x="80" y="108" fill="#ffffff" font-family="Georgia, serif" font-size="17" letter-spacing="0.24em">ELJ ALL DAY</text>
    <text x="80" y="148" fill="#d2d5f9" font-family="Georgia, serif" font-size="24">+</text>

    <!-- Stacked headline -->
    <text x="80" y="248" fill="#ffffff" font-family="Georgia, serif" font-size="92" font-weight="300">Strategic</text>
    <text x="80" y="360" fill="#ffffff" font-family="Georgia, serif" font-size="92" font-weight="300">
      <tspan>design </tspan>
      <tspan font-style="italic">for</tspan>
    </text>
    <text x="80" y="472" fill="#c8ff00" font-family="Georgia, serif" font-size="92" font-weight="300" font-style="italic">sports, media</text>
    <text x="80" y="584" fill="#c8ff00" font-family="Georgia, serif" font-size="92" font-weight="300" font-style="italic">&amp; fandom</text>
  </g>
</svg>
